<svg width="24" height="24" viewBox="0 0 24 24" fill="none" xmlns="http://www.w3.org/2000/svg">
<path fill-rule="evenodd" clip-rule="evenodd" d="M6 3.75C5.86193 3.75 5.75 3.86193 5.75 4V21.5H4.25V4C4.25 3.0335 5.0335 2.25 6 2.25H13.5C14.4665 2.25 15.25 3.0335 15.25 4V5.25H17.5C18.4665 5.25 19.25 6.0335 19.25 7V7.75H20.5V9.25H8.5V7.75H9.75V7C9.75 6.0335 10.5335 5.25 11.5 5.25H13.75V4C13.75 3.86193 13.6381 3.75 13.5 3.75H6ZM11.25 7.75H17.75V7C17.75 6.86193 17.6381 6.75 17.5 6.75H11.5C11.3619 6.75 11.25 6.86193 11.25 7V7.75ZM11.5 10.25C11.9142 10.25 12.25 10.5858 12.25 11V11.5C12.25 11.9142 11.9142 12.25 11.5 12.25C11.0858 12.25 10.75 11.9142 10.75 11.5V11C10.75 10.5858 11.0858 10.25 11.5 10.25ZM14.5 10.25C14.9142 10.25 15.25 10.5858 15.25 11V11.5C15.25 11.9142 14.9142 12.25 14.5 12.25C14.0858 12.25 13.75 11.9142 13.75 11.5V11C13.75 10.5858 14.0858 10.25 14.5 10.25ZM17.5 10.25C17.9142 10.25 18.25 10.5858 18.25 11V11.5C18.25 11.9142 17.9142 12.25 17.5 12.25C17.0858 12.25 16.75 11.9142 16.75 11.5V11C16.75 10.5858 17.0858 10.25 17.5 10.25ZM11.5 13.25C11.9142 13.25 12.25 13.5858 12.25 14V14.5C12.25 14.9142 11.9142 15.25 11.5 15.25C11.0858 15.25 10.75 14.9142 10.75 14.5V14C10.75 13.5858 11.0858 13.25 11.5 13.25ZM14.5 13.25C14.9142 13.25 15.25 13.5858 15.25 14V14.5C15.25 14.9142 14.9142 15.25 14.5 15.25C14.0858 15.25 13.75 14.9142 13.75 14.5V14C13.75 13.5858 14.0858 13.25 14.5 13.25ZM17.5 13.25C17.9142 13.25 18.25 13.5858 18.25 14V14.5C18.25 14.9142 17.9142 15.25 17.5 15.25C17.0858 15.25 16.75 14.9142 16.75 14.5V14C16.75 13.5858 17.0858 13.25 17.5 13.25ZM11.5 16.25C11.9142 16.25 12.25 16.5858 12.25 17V17.5C12.25 17.9142 11.9142 18.25 11.5 18.25C11.0858 18.25 10.75 17.9142 10.75 17.5V17C10.75 16.5858 11.0858 16.25 11.5 16.25ZM14.5 16.25C14.9142 16.25 15.25 16.5858 15.25 17V17.5C15.25 17.9142 14.9142 18.25 14.5 18.25C14.0858 18.25 13.75 17.9142 13.75 17.5V17C13.75 16.5858 14.0858 16.25 14.5 16.25ZM17.5 16.25C17.9142 16.25 18.25 16.5858 18.25 17V17.5C18.25 17.9142 17.9142 18.25 17.5 18.25C17.0858 18.25 16.75 17.9142 16.75 17.5V17C16.75 16.5858 17.0858 16.25 17.5 16.25ZM11.5 19.25C11.9142 19.25 12.25 19.5858 12.25 20V20.5C12.25 20.9142 11.9142 21.25 11.5 21.25C11.0858 21.25 10.75 20.9142 10.75 20.5V20C10.75 19.5858 11.0858 19.25 11.5 19.25ZM14.5 19.25C14.9142 19.25 15.25 19.5858 15.25 20V20.5C15.25 20.9142 14.9142 21.25 14.5 21.25C14.0858 21.25 13.75 20.9142 13.75 20.5V20C13.75 19.5858 14.0858 19.25 14.5 19.25ZM17.5 19.25C17.9142 19.25 18.25 19.5858 18.25 20V20.5C18.25 20.9142 17.9142 21.25 17.5 21.25C17.0858 21.25 16.75 20.9142 16.75 20.5V20C16.75 19.5858 17.0858 19.25 17.5 19.25Z" fill="#131313"/>
</svg>
