<svg width="24" height="24" viewBox="0 0 24 24" fill="none" xmlns="http://www.w3.org/2000/svg">
<path fill-rule="evenodd" clip-rule="evenodd" d="M6.47502 8.35737L4.05063 16.8428C3.85107 16.7036 3.65427 16.5587 3.46046 16.408L2.53955 17.592C8.10405 21.92 15.896 21.92 21.4605 17.592L20.5396 16.408C20.3491 16.5561 20.1558 16.6986 19.9598 16.8355L18.3001 10.75H18.5C19.4665 10.75 20.25 9.9665 20.25 9V2.75H18C15.6318 2.75 13.6685 4.48301 13.3089 6.75H7.16227C5.54816 6.75 4.11514 7.78286 3.60471 9.31415L2.78848 11.7628L4.21151 12.2372L5.02774 9.78849C5.25878 9.09535 5.80489 8.57241 6.47502 8.35737ZM18 4.25C16.2051 4.25 14.75 5.70507 14.75 7.5L14.75 9.5C14.75 10.7588 13.9042 11.82 12.75 12.1465V13.25H16.558L17.9795 17.9884C18.1983 17.8842 18.4149 17.774 18.6292 17.6577L15.7764 7.19734L17.2236 6.80266L17.891 9.25H18.5C18.6381 9.25 18.75 9.13807 18.75 9V4.25H18ZM16.5855 18.5618L15.442 14.75H12.75V15.5H11.25V14.75H9.05801L7.86948 18.7118C10.7093 19.594 13.7709 19.544 16.5855 18.5618ZM6.46036 18.1887L7.94196 13.25H11.25V12.1465C10.0957 11.82 9.24999 10.7588 9.24999 9.5V8.25H8.06572L5.37687 17.661C5.73195 17.8534 6.09349 18.0293 6.46036 18.1887ZM10.75 8.25V9.5C10.75 10.1904 11.3096 10.75 12 10.75C12.6903 10.75 13.25 10.1904 13.25 9.5V8.25H10.75Z" fill="#131313"/>
</svg>
