<svg width="24" height="24" viewBox="0 0 24 24" fill="none" xmlns="http://www.w3.org/2000/svg">
<path fill-rule="evenodd" clip-rule="evenodd" d="M8.5 11.5C10.1569 11.5 11.5 10.1569 11.5 8.5C11.5 6.84315 10.1569 5.5 8.5 5.5C6.84315 5.5 5.5 6.84315 5.5 8.5C5.5 10.1569 6.84315 11.5 8.5 11.5ZM8.5 10C9.32843 10 10 9.32843 10 8.5C10 7.67157 9.32843 7 8.5 7C7.67157 7 7 7.67157 7 8.5C7 9.32843 7.67157 10 8.5 10Z" fill="#131313"/>
<path fill-rule="evenodd" clip-rule="evenodd" d="M2.25 8.25C2.25 4.93629 4.93629 2.25 8.25 2.25H8.57426L20.3432 4.60379C21.1612 4.76739 21.75 5.48561 21.75 6.3198V10.1802C21.75 11.0144 21.1612 11.7326 20.3432 11.8962L12.9898 13.3669L13.917 17.0756C14.1931 18.1801 13.3577 19.25 12.2192 19.25H10.663C10.3245 20.6833 9.03679 21.75 7.5 21.75H4.5V20.25H7.5C8.24108 20.25 8.87457 19.7894 9.12976 19.1388C8.6285 18.9507 8.22829 18.5377 8.06783 18.0029L6.89595 14.0966C4.23438 13.4827 2.25 11.0981 2.25 8.25ZM8.25 3.75C5.76472 3.75 3.75 5.76472 3.75 8.25C3.75 10.7353 5.76472 12.75 8.25 12.75H8.42574L20.049 10.4253C20.1659 10.402 20.25 10.2994 20.25 10.1802V6.3198C20.25 6.20063 20.1659 6.09803 20.049 6.07466L8.42574 3.75H8.25ZM8.50802 14.25L9.50457 17.5718C9.5363 17.6776 9.63363 17.75 9.74403 17.75H12.2192C12.3819 17.75 12.5012 17.5972 12.4618 17.4394L11.5173 13.6614L8.57426 14.25H8.50802Z" fill="#131313"/>
</svg>
