<svg width="24" height="24" viewBox="0 0 24 24" fill="none" xmlns="http://www.w3.org/2000/svg">
<path fill-rule="evenodd" clip-rule="evenodd" d="M10.25 7.5C10.25 6.5335 11.0335 5.75 12 5.75C12.9665 5.75 13.75 6.5335 13.75 7.5V7.61905C13.75 8.5198 13.0198 9.25 12.119 9.25C11.6391 9.25 11.25 9.63909 11.25 10.119V11.0937L2.90797 16.5342C1.45001 17.485 2.12332 19.75 3.86394 19.75H20.1361C21.8767 19.75 22.55 17.485 21.092 16.5342L12.75 11.0937V10.6864C14.1767 10.3945 15.25 9.13209 15.25 7.61905V7.5C15.25 5.70507 13.7949 4.25 12 4.25C10.2051 4.25 8.75 5.70507 8.75 7.5H10.25ZM3.72737 17.7906L12 12.3954L20.2726 17.7906C20.3383 17.8334 20.3641 17.8777 20.3764 17.9147C20.3907 17.9578 20.3929 18.0132 20.3757 18.0712C20.3584 18.1293 20.3263 18.1744 20.2908 18.2027C20.2603 18.227 20.2144 18.25 20.1361 18.25H3.86394C3.78557 18.25 3.73971 18.227 3.70921 18.2027C3.67371 18.1744 3.64155 18.1293 3.6243 18.0712C3.60705 18.0132 3.60931 17.9578 3.62359 17.9147C3.63586 17.8777 3.66173 17.8334 3.72737 17.7906Z" fill="#131313"/>
</svg>
