<svg width="24" height="24" viewBox="0 0 24 24" fill="none" xmlns="http://www.w3.org/2000/svg">
<path fill-rule="evenodd" clip-rule="evenodd" d="M16.25 7V7.25H18V8.75H16.75V11C16.75 11.8365 16.163 12.536 15.3785 12.709L16.8166 21.1233H15.2602L13.8647 12.75H10.1353L8.7398 21.1233H7.1857L8.62149 12.709C7.83696 12.536 7.25 11.8365 7.25 11V8.75H6V7.25H7.75V7C7.75 4.65279 9.65279 2.75 12 2.75C14.3472 2.75 16.25 4.65279 16.25 7ZM9.25 7C9.25 5.48122 10.4812 4.25 12 4.25C13.5188 4.25 14.75 5.48122 14.75 7V7.25H9.25V7ZM12.75 8.75H15.25V11C15.25 11.1381 15.1381 11.25 15 11.25H12.75V8.75ZM11.25 8.75V11.25H9C8.86193 11.25 8.75 11.1381 8.75 11V8.75H11.25Z" fill="#131313"/>
</svg>
