<svg width="24" height="24" viewBox="0 0 24 24" fill="none" xmlns="http://www.w3.org/2000/svg">
<path fill-rule="evenodd" clip-rule="evenodd" d="M5.75 4.25H4.5V2.75H8.5V4.25H7.25V5.75H7.5C8.4665 5.75 9.25 6.5335 9.25 7.5V8.5H7.75V7.5C7.75 7.36193 7.63807 7.25 7.5 7.25H5.5C5.36193 7.25 5.25 7.36193 5.25 7.5V12.005C5.31209 12.0017 5.37416 12 5.43613 12C6.22627 12 7.03437 12.2725 7.66136 12.8404C7.95401 13.1055 8.3521 13.2495 8.76814 13.2495C9.18418 13.2495 9.58227 13.1055 9.87492 12.8404C10.5019 12.2725 11.31 12 12.1002 12C12.8903 12 13.6984 12.2725 14.3254 12.8404C14.618 13.1055 15.0161 13.2495 15.4322 13.2495C15.8482 13.2495 16.2463 13.1055 16.5389 12.8404C17.1622 12.2758 17.9644 12.0033 18.75 12V11.5H20.25V17.5C20.25 19.5711 18.5711 21.25 16.5 21.25H7.5C5.42893 21.25 3.75 19.5711 3.75 17.5V7.5C3.75 6.5335 4.5335 5.75 5.5 5.75H5.75V4.25ZM5.25 17.5V13.6757C5.31144 13.6693 5.37358 13.666 5.43613 13.666C5.85217 13.666 6.25026 13.8101 6.54291 14.0751C7.16989 14.6431 7.97799 14.9155 8.76814 14.9155C9.55828 14.9155 10.3664 14.6431 10.9934 14.0751C11.286 13.8101 11.6841 13.666 12.1002 13.666C12.5162 13.666 12.9143 13.8101 13.2069 14.0751C13.8339 14.6431 14.642 14.9155 15.4322 14.9155C16.2223 14.9155 17.0304 14.6431 17.6574 14.0751C17.9467 13.8131 18.3391 13.6693 18.75 13.6661V17.5C18.75 18.7426 17.7426 19.75 16.5 19.75H7.5C6.25736 19.75 5.25 18.7426 5.25 17.5Z" fill="#131313"/>
<path d="M12 4C12 4.54119 11.874 5.07496 11.632 5.55902L10.75 7.32295C10.2568 8.30939 10 8.89712 10 10H11.5C11.5 9.1735 11.6828 8.80903 12.0347 8.10749L12.9736 6.22984C13.3198 5.53749 13.5 4.77406 13.5 4H12Z" fill="#131313"/>
<path d="M14.632 5.55902C14.874 5.07496 15 4.54119 15 4H16.5C16.5 4.77406 16.3198 5.53749 15.9736 6.22984L15.0347 8.10749C14.6828 8.80903 14.5 9.1735 14.5 10H13C13 8.89712 13.2568 8.30939 13.75 7.32295L14.632 5.55902Z" fill="#131313"/>
<path d="M17.632 5.55902C17.874 5.07496 18 4.54119 18 4H19.5C19.5 4.77406 19.3198 5.53749 18.9736 6.22984L18.0347 8.10749C17.6828 8.80903 17.5 9.1735 17.5 10H16C16 8.89712 16.2568 8.30939 16.75 7.32295L17.632 5.55902Z" fill="#131313"/>
</svg>
