<svg width="24" height="24" viewBox="0 0 24 24" fill="none" xmlns="http://www.w3.org/2000/svg">
<path fill-rule="evenodd" clip-rule="evenodd" d="M19.5 5.75C19.0858 5.75 18.75 6.08579 18.75 6.5V7.25H19.5C19.9142 7.25 20.25 6.91421 20.25 6.5C20.25 6.08579 19.9142 5.75 19.5 5.75ZM18.4705 7.39071L16.6688 6.94028C13.6034 6.17394 10.3966 6.17394 7.33119 6.94028L5.52948 7.39071L5.20225 8.26334C4.2988 10.6725 4.2988 13.3275 5.20225 15.7367L5.52948 16.6093L7.33119 17.0597C10.3966 17.8261 13.6034 17.8261 16.6688 17.0597L18.4705 16.6093L18.7978 15.7367C19.7012 13.3275 19.7012 10.6725 18.7978 8.26334L18.4705 7.39071ZM18.75 16.75V17.5C18.75 17.9142 19.0858 18.25 19.5 18.25C19.9142 18.25 20.25 17.9142 20.25 17.5C20.25 17.0858 19.9142 16.75 19.5 16.75H18.75ZM5.25 16.75H4.5C4.08579 16.75 3.75 17.0858 3.75 17.5C3.75 17.9142 4.08579 18.25 4.5 18.25C4.91421 18.25 5.25 17.9142 5.25 17.5V16.75ZM5.25 7.25V6.5C5.25 6.08579 4.91421 5.75 4.5 5.75C4.08579 5.75 3.75 6.08579 3.75 6.5C3.75 6.91421 4.08579 7.25 4.5 7.25H5.25ZM17.4427 5.58759C17.7927 4.79957 18.5822 4.25 19.5 4.25C20.7426 4.25 21.75 5.25736 21.75 6.5C21.75 7.39559 21.2268 8.16896 20.4693 8.53109C21.144 10.7942 21.144 13.2058 20.4693 15.4689C21.2268 15.831 21.75 16.6044 21.75 17.5C21.75 18.7426 20.7426 19.75 19.5 19.75C18.5822 19.75 17.7927 19.2004 17.4427 18.4124L17.0326 18.5149C13.7284 19.341 10.2716 19.341 6.96739 18.5149L6.55731 18.4124C6.20731 19.2004 5.41783 19.75 4.5 19.75C3.25736 19.75 2.25 18.7426 2.25 17.5C2.25 16.6044 2.77325 15.831 3.53072 15.4689C2.85598 13.2058 2.85598 10.7942 3.53072 8.53109C2.77325 8.16896 2.25 7.39559 2.25 6.5C2.25 5.25736 3.25736 4.25 4.5 4.25C5.41783 4.25 6.20731 4.79957 6.55731 5.58759L6.96739 5.48507C10.2716 4.65901 13.7284 4.65901 17.0326 5.48507L17.4427 5.58759Z" fill="#131313"/>
</svg>
