<svg width="24" height="24" viewBox="0 0 24 24" fill="none" xmlns="http://www.w3.org/2000/svg">
<path d="M11.25 6.8859V10.701L7.55578 8.56817L7.57179 4.97232L6.07181 4.96564L6.05961 7.70436L4.14776 6.60055L3.39776 7.89959L5.30961 9.00339L2.94391 10.3833L3.69969 11.679L6.80578 9.86721L10.5 12.0001L7.19618 13.9075L3.63237 12.2862L3.01123 13.6516L5.59978 14.8292L3.39774 16.1005L4.14774 17.3996L6.34971 16.1283L6.0753 18.9587L7.5683 19.1034L7.94611 15.2066L11.25 13.2991V17.5648L8.12789 19.3488L8.8721 20.6512L11.25 19.2924V21.5H12.75V19.2924L15.1279 20.6512L15.8721 19.3488L12.75 17.5648V13.2991L16.0539 15.2066L16.4317 19.1035L17.9247 18.9588L17.6503 16.1283L19.8522 17.3996L20.6022 16.1005L18.4003 14.8292L20.9888 13.6517L20.3676 12.2863L16.8039 13.9076L13.5 12.0001L17.1942 9.86719L20.3003 11.679L21.0561 10.3833L18.6904 9.00338L20.6022 7.89957L19.8522 6.60054L17.9404 7.70434L17.9282 4.96563L16.4282 4.9723L16.4442 8.56816L12.75 10.701V6.88592L15.9359 4.61025L15.0641 3.38965L12.75 5.04256V2.5H11.25V5.04255L8.93594 3.38965L8.06408 4.61025L11.25 6.8859Z" fill="#131313"/>
</svg>
