<svg width="24" height="24" viewBox="0 0 24 24" fill="none" xmlns="http://www.w3.org/2000/svg">
<path fill-rule="evenodd" clip-rule="evenodd" d="M4.75 6C4.75 5.30964 5.30964 4.75 6 4.75H13.25V8C13.25 9.51878 14.4812 10.75 16 10.75H19.25V14.25H6V15.75H19.25V18C19.25 18.6904 18.6904 19.25 18 19.25H5C4.86193 19.25 4.75 19.1381 4.75 19V17.9501C5.12503 18.1419 5.54989 18.25 6 18.25H18V16.75H6C5.30964 16.75 4.75 16.1904 4.75 15.5V14.5V6ZM3.25 14.5V6C3.25 4.48122 4.48122 3.25 6 3.25H14H14.5H14.8107L15.0303 3.46967L20.5303 8.96967L20.75 9.18934V9.5V10V18C20.75 19.5188 19.5188 20.75 18 20.75H5C4.0335 20.75 3.25 19.9665 3.25 19V15.5V14.5ZM18.6893 9.25L14.75 5.31066V8C14.75 8.69036 15.3096 9.25 16 9.25H18.6893Z" fill="#131313"/>
</svg>
