<svg width="24" height="24" viewBox="0 0 24 24" fill="none" xmlns="http://www.w3.org/2000/svg">
<path fill-rule="evenodd" clip-rule="evenodd" d="M7.25 7.2582V7.25C7.25 4.48858 9.48858 2.25 12.25 2.25C15.0114 2.25 17.25 4.48858 17.25 7.25V8.75H17.3611C18.4175 8.75 19.233 9.67884 19.0964 10.7263L17.8573 20.2263C17.7436 21.098 17.001 21.75 16.122 21.75H7.88278C7.00022 21.75 6.25576 21.0928 6.1463 20.2171L5.83791 17.75H5.5C4.5335 17.75 3.75 16.9665 3.75 16V11C3.75 9.01294 5.29549 7.38685 7.25 7.2582ZM8.75 7.25C8.75 5.317 10.317 3.75 12.25 3.75C14.183 3.75 15.75 5.317 15.75 7.25V8.75H12.7323C12.611 7.90193 11.8816 7.25 11 7.25H8.75ZM7.34959 17.75L7.63471 20.031C7.65035 20.1561 7.7567 20.25 7.88278 20.25H16.122C16.2475 20.25 16.3536 20.1569 16.3699 20.0323L17.1893 13.75H12.75V16C12.75 16.9665 11.9665 17.75 11 17.75H7.34959ZM12.75 12.25H17.385L17.609 10.5323C17.6285 10.3827 17.512 10.25 17.3611 10.25H12.75V12.25ZM11.25 13.25H5.25V11C5.25 9.75736 6.25736 8.75 7.5 8.75H11C11.1381 8.75 11.25 8.86193 11.25 9V13.25ZM5.25 14.75H11.25V16C11.25 16.1381 11.1381 16.25 11 16.25H5.5C5.36193 16.25 5.25 16.1381 5.25 16V14.75Z" fill="#131313"/>
</svg>
