<svg width="24" height="24" viewBox="0 0 24 24" fill="none" xmlns="http://www.w3.org/2000/svg">
<path fill-rule="evenodd" clip-rule="evenodd" d="M11.3327 5.25H3.58274V3.75H13.0827C16.6458 3.75 19.7271 6.23342 20.484 9.71515L21.5679 14.7014C21.7969 15.7546 20.9946 16.75 19.9168 16.75H4.58274C3.61624 16.75 2.83274 15.9665 2.83274 15V11C2.83274 8.92893 4.51167 7.25 6.58274 7.25H11.3327V5.25ZM12.8327 5.25V8.75H6.58274C5.34009 8.75 4.33274 9.75736 4.33274 11V12.25H19.5L19.0182 10.0338C18.4112 7.24159 15.9402 5.25 13.0827 5.25H12.8327ZM4.33274 15V13.75H19.8261L20.1022 15.02C20.1279 15.1383 20.0378 15.25 19.9168 15.25H4.58274C4.44466 15.25 4.33274 15.1381 4.33274 15Z" fill="#131313"/>
<path d="M11.0827 17.75C10.6685 17.75 10.3327 18.0858 10.3327 18.5C10.3327 18.9142 10.6685 19.25 11.0827 19.25H11.5827C11.9969 19.25 12.3327 18.9142 12.3327 18.5C12.3327 18.0858 11.9969 17.75 11.5827 17.75H11.0827Z" fill="#131313"/>
<path d="M14.0827 17.75C13.6685 17.75 13.3327 18.0858 13.3327 18.5C13.3327 18.9142 13.6685 19.25 14.0827 19.25H14.5827C14.9969 19.25 15.3327 18.9142 15.3327 18.5C15.3327 18.0858 14.9969 17.75 14.5827 17.75H14.0827Z" fill="#131313"/>
<path d="M9.58274 19.25C9.16852 19.25 8.83274 19.5858 8.83274 20C8.83274 20.4142 9.16852 20.75 9.58274 20.75H10.0827C10.4969 20.75 10.8327 20.4142 10.8327 20C10.8327 19.5858 10.4969 19.25 10.0827 19.25H9.58274Z" fill="#131313"/>
<path d="M12.5827 19.25C12.1685 19.25 11.8327 19.5858 11.8327 20C11.8327 20.4142 12.1685 20.75 12.5827 20.75H13.0827C13.4969 20.75 13.8327 20.4142 13.8327 20C13.8327 19.5858 13.4969 19.25 13.0827 19.25H12.5827Z" fill="#131313"/>
<path d="M15.5827 19.25C15.1685 19.25 14.8327 19.5858 14.8327 20C14.8327 20.4142 15.1685 20.75 15.5827 20.75H16.0827C16.4969 20.75 16.8327 20.4142 16.8327 20C16.8327 19.5858 16.4969 19.25 16.0827 19.25H15.5827Z" fill="#131313"/>
</svg>
