<svg width="24" height="24" viewBox="0 0 24 24" fill="none" xmlns="http://www.w3.org/2000/svg">
<path fill-rule="evenodd" clip-rule="evenodd" d="M2.25 7.5C2.25 5.42893 3.92893 3.75 6 3.75H18C20.0711 3.75 21.75 5.42893 21.75 7.5V14C21.75 16.0711 20.0711 17.75 18 17.75H15.25V19.25H17V20.75H7V19.25H8.75V17.75H6C3.92893 17.75 2.25 16.0711 2.25 14V7.5ZM10.25 17.75V19.25H13.75V17.75H10.25ZM6 5.25C4.75736 5.25 3.75 6.25736 3.75 7.5V14C3.75 15.2426 4.75736 16.25 6 16.25H18C19.2426 16.25 20.25 15.2426 20.25 14V7.5C20.25 6.25736 19.2426 5.25 18 5.25H6Z" fill="#131313"/>
</svg>
