<svg width="24" height="24" viewBox="0 0 24 24" fill="none" xmlns="http://www.w3.org/2000/svg">
<path d="M5.5 5.25C5.08579 5.25 4.75 5.58579 4.75 6C4.75 6.41421 5.08579 6.75 5.5 6.75H6C6.41422 6.75 6.75 6.41421 6.75 6C6.75 5.58579 6.41422 5.25 6 5.25H5.5Z" fill="#131313"/>
<path fill-rule="evenodd" clip-rule="evenodd" d="M5.25 12C5.25 8.27208 8.27208 5.25 12 5.25C15.7279 5.25 18.75 8.27208 18.75 12C18.75 15.7279 15.7279 18.75 12 18.75C8.27208 18.75 5.25 15.7279 5.25 12ZM6.95246 10.5512C8.77827 9.78199 10.9242 10.0056 12.5741 11.2431L12.8179 11.426C14.0987 12.3865 15.7794 12.6021 17.25 12.0178C17.25 12.0119 17.25 12.0059 17.25 12C17.25 9.1005 14.8995 6.75 12 6.75C9.60306 6.75 7.58129 8.35632 6.95246 10.5512ZM16.9776 13.6736C15.2422 14.0895 13.383 13.7248 11.9179 12.6259L11.6741 12.4431C10.2166 11.3499 8.23332 11.3313 6.76219 12.3606C6.94745 15.0919 9.2217 17.25 12 17.25C14.3143 17.25 16.2789 15.7525 16.9776 13.6736Z" fill="#131313"/>
<path fill-rule="evenodd" clip-rule="evenodd" d="M4.62079 2.25C3.90655 2.25 3.28814 2.74607 3.1332 3.44331C1.88081 9.07903 1.88081 14.921 3.1332 20.5567C3.28814 21.2539 3.90655 21.75 4.62079 21.75H19.3792C20.0935 21.75 20.7119 21.2539 20.8668 20.5567C22.1192 14.921 22.1192 9.07903 20.8668 3.44331C20.7119 2.74607 20.0935 2.25 19.3792 2.25H4.62079ZM4.59748 3.76871C4.5999 3.75778 4.6096 3.75 4.62079 3.75H19.3792C19.3904 3.75 19.4001 3.75778 19.4025 3.76871C20.6073 9.19011 20.6073 14.8099 19.4025 20.2313C19.4001 20.2422 19.3904 20.25 19.3792 20.25H4.62079C4.6096 20.25 4.5999 20.2422 4.59748 20.2313C3.39272 14.8099 3.39272 9.19011 4.59748 3.76871Z" fill="#131313"/>
</svg>
